# xmcd
#
# Track frame offsets:
#	150
#	16863
#	29044
#	53207
#	67968
#	80583
#	101438
#	118563
#	135945
#	153086
#	166797
#	186131
#	207600
#	222151
#	236123
#	246648
#	266628
#	281903
#	315283
#	335317
#
# Disc length: 4707 seconds
#
# Revision: 1
# Processed by: cddbd v1.5.2PL0 Copyright (c) Steve Scherf et al.
# Submitted via: audiograbber 1.83.01
#
DISCID=1c126114
DTITLE=Lou Rawls - Lady Love Golden Hits
DYEAR=1900
DGENRE=Blues
TTITLE0=Lady Love
TTITLE1=Gentle On My Mine
TTITLE2=Here Comes The Sun
TTITLE3=Summertime
TTITLE4=Singing' In The Rain
TTITLE5=What A Wonderful World
TTITLE6=Bye, Bye Blackbird
TTITLE7=Baby, It's Cold Outside
TTITLE8=Spring Can Really Hang Up THe Most
TTITLE9=Spring Again
TTITLE10=Autumn Leaves
TTITLE11=Everything Must Change
TTITLE12=Blue Skies
TTITLE13=Those Lazy, Hazy, Crazy Days Of Summe
TTITLE14=Good Day Sunshine
TTITLE15=Turn, Turn, Turn
TTITLE16=Lady Love (Alternative Version)
TTITLE17=Medley (Concert Recording)
TTITLE18=Send In The Clowns (Concert Recording)
TTITLE19=You'll Never Find Another Love Like Mine  (Concert Recording)
EXTD=CD142.238 Austro Mechana
EXTT0=
EXTT1=
EXTT2=
EXTT3=
EXTT4=
EXTT5=
EXTT6=
EXTT7=
EXTT8=
EXTT9=
EXTT10=
EXTT11=
EXTT12=
EXTT13=
EXTT14=
EXTT15=
EXTT16=
EXTT17=
EXTT18=
EXTT19=
PLAYORDER=
